# AST/ASF file generated using VICON BodyLanguage
# -----------------------------------------------
:version 1.10
:name VICON
:units
  mass 1.0
  length 0.45
  angle deg
:documentation
   .ast/.asf automatically generated from VICON data using
   VICON BodyBuilder and BodyLanguage model FoxedUp or BRILLIANT.MOD
:root
   order TX TY TZ RX RY RZ
   axis XYZ
   position 0 0 0  
   orientation 0 0 0 
:bonedata
  begin
     id 1 
     name lhipjoint
     direction 0.677091 -0.635792 0.370561 
     length 2.74323 
     axis 0 0 0  XYZ
  end
  begin
     id 2 
     name lfemur
     direction 0.34202 -0.939693 0  
     length 7.44995  
     axis 0 0 20  XYZ
    dof rx ry rz
    limits (-160.0 20.0)
           (-70.0 70.0)
           (-60.0 70.0)
  end
  begin
     id 3 
     name ltibia
     direction 0.34202 -0.939693 0   
     length 7.34467   
     axis 0 0 20   XYZ
    dof rx
    limits (-10.0 170.0)
  end
  begin
     id 4 
     name lfoot
     direction 0.101953 -0.280114 0.954537   
     length 1.72105   
     axis -90 7.62852e-016 20   XYZ
    dof rx rz
    limits (-45.0 90.0)
           (-70.0 20.0)
  end
  begin
     id 5 
     name ltoes
     direction 1.53537e-011 -4.21915e-011 1   
     length 0.865872   
     axis -90 7.62852e-016 20   XYZ
    dof rx
    limits (-90.0 20.0)
  end
  begin
     id 6 
     name rhipjoint
     direction -0.695735 -0.620586 0.361699   
     length 2.81045  
     axis 0 0 0  XYZ 
  end
  begin
     id 7 
     name rfemur
     direction -0.34202 -0.939693 0   
     length 7.29387   
     axis 0 0 -20   XYZ
    dof rx ry rz
    limits (-160.0 20.0)
           (-70.0 70.0)
           (-70.0 60.0)
  end
  begin
     id 8 
     name rtibia
     direction -0.34202 -0.939693 0   
     length 7.44935   
     axis 0 0 -20   XYZ
    dof rx
    limits (-10.0 170.0)
 end
 begin
     id 9 
     name rfoot
     direction -0.104163 -0.286184 0.952496   
     length 1.77731  
     axis -90 -7.62852e-016 -20   XYZ
    dof rx rz
    limits (-45.0 90.0)
           (-20.0 70.0)
  end
  begin
     id 10 
     name rtoes
     direction -1.5355e-011 -4.21888e-011 1   
     length 0.892424   
     axis -90 -7.62852e-016 -20   XYZ
    dof rx
    limits (-90.0 20.0)
  end
  begin
     id 11 
     name lowerback
     direction 0.0100202 0.997226 -0.0737589   
     length 2.16892   
     axis 0 0 0   XYZ
    dof rx ry rz
    limits (-20.0 45.0)
           (-30.0 30.0)
           (-30.0 30.0)
  end
  begin
     id 12 
     name upperback
     direction 0.00432398 0.999988 -0.00215019   
     length 2.17326   
     axis 0 0 0   XYZ
    dof rx ry rz
    limits (-20.0 45.0)
           (-30.0 30.0)
           (-30.0 30.0)
  end
  begin
     id 13 
     name thorax
     direction -0.00195047 0.999485 0.0320434   
     length 2.18139   
     axis 0 0 0   XYZ
    dof rx ry rz
    limits (-20.0 45.0)
           (-30.0 30.0)
           (-30.0 30.0)
  end
  begin
     id 14 
     name lowerneck
     direction 0.00782762 0.986241 0.165128   
     length 1.88415   
     axis 0 0 0   XYZ
    dof rx ry rz
    limits (-20.0 45.0)
           (-30.0 30.0)
           (-30.0 30.0)
  end
  begin
     id 15 
     name upperneck
     direction 0.00988667 0.981098 -0.193258   
     length 1.9242   
     axis 0 0 0   XYZ
    dof rx ry rz
    limits (-20.0 45.0)
           (-30.0 30.0)
           (-30.0 30.0)
  end
  begin
     id 16
     name head
     direction 0.00252199 0.996513 -0.0833958  
     length 1.93887  
     axis 0 0 0   XYZ
    dof rx ry rz
    limits (-20.0 45.0)
           (-30.0 30.0)
           (-30.0 30.0)
  end
  begin
     id 17 
     name lclavicle
     direction 0.929492 0.368193 -0.0218667  
     length 3.5955  
     axis 0 0 0   XYZ
    dof ry rz
    limits (-20.0 10.0)
           (0.0 20.0)
  end
  begin
     id 18 
     name lhumerus
     direction 1 -4.48972e-011 1.41911e-027   
     length 5.2795   
     axis 180 -30 -90   XYZ
    dof rx ry rz
    limits (-60.0 90.0)
           (-90.0 90.0)
           (-90.0 90.0)
  end
  begin
     id 19
     name lradius
     direction 1 -4.48963e-011 7.05772e-027   
     length 3.53504   
     axis 180 -30 -90   XYZ
    dof rx
    limits (-10.0 170.0)
  end
  begin
     id 20
     name lwrist
     direction 1 -4.48957e-011 9.54866e-027   
     length 1.76752   
     axis -7.69462e-015 90 90   XYZ
    dof ry
    limits (-180.0 0.0)
 end
  begin
     id 21 
     name lhand
     direction 1 -4.48979e-011 1.90973e-026   
     length 0.667948   
     axis -1.21857e-014 90 90   XYZ
    dof rx rz
    limits (-90.0 90.0)
           (-45.0 45.0)
  end
  begin
     id 22 
     name lfingers
     direction 1 -4.48987e-011 3.81946e-026   
     length 0.538517   
     axis -2.43714e-014 90 90   XYZ
    dof rx
    limits (0.0 90.0)
  end
  begin
     id 23
     name lthumb
     direction 0.707107 -6.34962e-011 0.707107   
     length 0.773206   
     axis -90 45 2.85299e-015   XYZ
    dof rx rz
    limits (-45.0 45.0)
           (-45.0 45.0)
  end
  begin
     id 24 
     name rclavicle
     direction -0.898763 0.414256 -0.143584   
     length 3.5176  
     axis 0 0 0   XYZ 
    dof ry rz
    limits (-10.0 20.0)
           (-20.0 0.0)
  end
  begin
     id 25 
     name rhumerus
     direction -1 -4.48971e-011 1.129e-027  
     length 5.25035   
     axis 180 30 90   XYZ
    dof rx ry rz
    limits (-90.0 60.0)
           (-90.0 90.0)
           (-90.0 90.0)
  end
  begin
     id 26 
     name rradius
     direction -1 -4.48955e-011 6.34664e-027   
     length 3.58884   
     axis 180 30 90   XYZ
    dof rx
    limits (-10.0 170.0)
  end
  begin
     id 27 
     name rwrist
     direction -1 -4.48966e-011 9.54866e-027   
     length 1.79442   
     axis -7.69462e-015 -90 -90   XYZ
    dof ry
    limits (-180.0 0.0)
  end
  begin
     id 28
     name rhand
     direction -1 -4.48973e-011 1.90973e-026   
     length 0.779235   
     axis -1.21857e-014 -90 -90   XYZ
    dof rx rz
    limits (-90.0 90.0)
           (-45.0 45.0)
  end
  begin
     id 29
     name rfingers
     direction -1 -4.48984e-011 3.81946e-026   
     length 0.62824   
     axis -2.43714e-014 -90 -90   XYZ
    dof rx
    limits (0.0 90.0)
  end
  begin
     id 30
     name rthumb
     direction -0.707107 -6.34968e-011 0.707107   
     length 0.90203   
     axis -90 -45 -2.85299e-015   XYZ
    dof rx rz
    limits (-45.0 45.0)
           (-45.0 45.0)
  end
:hierarchy
  begin
    root lhipjoint rhipjoint lowerback
    lhipjoint lfemur
    lfemur ltibia
    ltibia lfoot
    lfoot ltoes
    rhipjoint rfemur
    rfemur rtibia
    rtibia rfoot
    rfoot rtoes
    lowerback upperback
    upperback thorax
    thorax lowerneck lclavicle rclavicle
    lowerneck upperneck
    upperneck head
    lclavicle lhumerus
    lhumerus lradius
    lradius lwrist
    lwrist lhand lthumb
    lhand lfingers
    rclavicle rhumerus
    rhumerus rradius
    rradius rwrist
    rwrist rhand rthumb
    rhand rfingers
  end

#!OML:ASF I:\Random Stuff\random\construction\7_22_03\Session 2\subj1.ASF
:FULLY-SPECIFIED
:DEGREES
971
root 4.65265 17.8402 0.884045 370.069 100.241 360.101
lowerback 2.53944 1.79462 3.27928
upperback 2.65748 2.50718 2.95982
thorax 1.31255 1.31781 1.16969
lowerneck -15.746 -3.19908 3.49337
upperneck 48.2891 -6.44604 9.039
head 24.4406 0.668168 3.60774
rclavicle 1.19271e-015 -1.74931e-014
rhumerus 11.3701 37.8667 -68.8075
rradius 95.4282
rwrist -14.9381
rhand -13.0697 36.2387
rfingers 7.12502
rthumb 13.026 6.6654
lclavicle 1.19271e-015 -1.74931e-014
lhumerus -16.2565 -25.5511 69.581
lradius 121.142
lwrist -0.708067
lhand -38.5801 33.6448
lfingers 7.12502
lthumb -11.5988 783.304
rfemur -9.10004 7.92862 21.8552
rtibia 13.1015
rfoot -11.9844 -37.6132
rtoes 8.18389
lfemur -19.872 -23.458 -10.7592
ltibia 16.4096
lfoot -7.49584 16.1575
ltoes -30.7831
972
root 4.66677 17.8358 0.873798 369.78 100.095 360.02
lowerback 2.4938 1.88131 3.47716
upperback 2.61454 2.62173 2.83864
thorax 1.30926 1.37728 0.934691
lowerneck -15.5168 -3.32997 3.49715
upperneck 48.3828 -6.66952 9.22907
head 24.4968 0.625525 3.68883
rclavicle 4.77083e-015 -6.36111e-015
rhumerus 13.3028 37.7982 -68.0408
rradius 96.2866
rwrist -14.8152
rhand -13.2582 36.4088
rfingers 7.12502
rthumb 12.8443 6.82397
lclavicle 4.77083e-015 -6.36111e-015
lhumerus -16.233 -25.4623 70.1778
lradius 121.053
lwrist -0.826113
lhand -38.7039 34.3207
lfingers 7.12502
lthumb -11.7182 783.973
rfemur -8.81703 7.88875 21.8552
rtibia 13.0976
rfoot -11.8089 -37.5157
rtoes 7.63712
lfemur -19.4772 -22.9932 -11.0304
ltibia 16.3755
lfoot -7.63452 15.7735
ltoes -30.446
973
root 4.6802 17.8317 0.864135 369.486 99.9826 359.91
lowerback 2.41994 1.94173 3.63656
upperback 2.61549 2.69818 2.72795
thorax 1.36535 1.41835 0.734943
lowerneck -15.4451 -3.40223 3.61399
upperneck 48.4753 -6.79531 9.22507
head 24.5734 0.614803 3.65265
rclavicle -4.41302e-014 -1.59028e-014
rhumerus 15.244 37.6455 -67.3388
rradius 96.9828
rwrist -14.4503
rhand -13.3137 36.5972
rfingers 7.12502
rthumb 12.7908 7.00899
lclavicle -4.41302e-014 -1.59028e-014
lhumerus -16.1451 -25.2181 70.7616
lradius 121.001
lwrist -0.87517
lhand -39.0039 35.006
lfingers 7.12502
lthumb -12.0074 784.642
rfemur -8.57637 7.8055 21.8469
rtibia 13.1304
rfoot -11.719 -37.3919
rtoes 7.51502
lfemur -19.1179 -22.5109 -11.2963
ltibia 16.3345
lfoot -7.71161 15.3336
ltoes -30.205
974
root 4.69375 17.83 0.855207 369.02 99.9177 359.629
lowerback 2.33757 1.97367 3.60021
upperback 2.66711 2.73366 2.71485
thorax 1.46404 1.43707 0.746307
lowerneck -15.4914 -3.4811 3.6523
upperneck 48.5632 -6.92467 9.21009
head 24.705 0.583887 3.62682
rclavicle -1.43125e-014 -3.33958e-014
rhumerus 17.3253 37.5605 -66.3101
rradius 97.5841
rwrist -14.2393
rhand -13.4619 36.5809
rfingers 7.12502
rthumb 12.6479 6.98381
lclavicle -1.43125e-014 -3.33958e-014
lhumerus -16.0731 -24.775 71.4296
lradius 121.027
lwrist -0.956572
lhand -39.1471 35.7328
lfingers 7.12502
lthumb -12.1455 785.36
rfemur -8.34282 7.89833 21.7966
rtibia 13.1852
rfoot -11.8368 -37.4469
rtoes 7.77168
lfemur -18.7729 -22.2489 -11.5511
ltibia 16.2812
lfoot -7.76402 15.1058
ltoes -30.0457
975
root 4.70834 17.8305 0.847046 368.461 99.8772 359.218
lowerback 2.25462 2.07102 3.56419
upperback 2.69094 2.85608 2.65644
thorax 1.53793 1.49835 0.709882
lowerneck -15.5302 -3.63179 3.65843
upperneck 48.6325 -7.23059 9.40097
head 24.8777 0.511993 3.6952
rclavicle -5.96354e-015 9.54166e-015
rhumerus 19.0332 37.2498 -65.4236
rradius 98.1063
rwrist -14.2048
rhand -13.5794 36.4549
rfingers 7.12502
rthumb 12.5346 6.85083
lclavicle -5.96354e-015 9.54166e-015
lhumerus -15.8993 -24.5291 72.0471
lradius 121.003
lwrist -1.14998
lhand -39.4059 36.4594
lfingers 7.12502
lthumb -12.395 786.072
rfemur -8.14946 8.22111 21.7106
rtibia 13.2616
rfoot -12.0675 -37.7221
rtoes 8.13749
lfemur -18.4666 -22.1397 -11.7847
ltibia 16.2038
lfoot -7.78801 15.0286
ltoes -29.9484
976
root 4.72344 17.8295 0.840703 367.876 99.8454 358.748
lowerback 2.16507 2.16438 3.57773
upperback 2.66604 2.9736 2.53946
thorax 1.57112 1.55677 0.585123
lowerneck -15.4547 -3.76794 3.66444
upperneck 48.7095 -7.52617 9.69456
head 25.0293 0.456809 3.83116
rclavicle 5.68524e-014 -2.38542e-014
rhumerus 20.3323 36.8812 -64.9092
rradius 98.5316
rwrist -14.3516
rhand -13.4913 36.4331
rfingers 7.12502
rthumb 12.6196 6.83434
lclavicle 5.68524e-014 -2.38542e-014
lhumerus -15.772 -24.2966 72.5478
lradius 121.011
lwrist -1.25597
lhand -39.7038 36.9623
lfingers 7.12502
lthumb -12.6822 786.557
rfemur -7.99119 8.44586 21.6199
rtibia 13.3365
rfoot -12.3265 -37.9042
rtoes 8.35879
lfemur -18.2053 -22.0874 -11.9961
ltibia 16.1231
lfoot -7.79729 14.9947
ltoes -30.0461
977
root 4.73624 17.8276 0.836862 367.547 99.8428 358.508
lowerback 2.06872 2.21101 3.61786
upperback 2.63043 3.02914 2.41559
thorax 1.59825 1.58457 0.439074
lowerneck -15.2752 -3.85376 3.68306
upperneck 48.7782 -7.77271 10.1075
head 25.1445 0.432091 4.04862
rclavicle -6.04305e-014 1.43125e-014
rhumerus 21.543 36.5913 -64.4981
rradius 98.8815
rwrist -14.702
rhand -13.3686 36.3277
rfingers 7.12502
rthumb 12.7379 6.73618
lclavicle -6.04305e-014 1.43125e-014
lhumerus -15.7554 -23.943 72.9005
lradius 121.088
lwrist -1.39763
lhand -39.7996 37.4023
lfingers 7.12502
lthumb -12.7746 786.991
rfemur -7.8511 8.39846 21.5895
rtibia 13.3505
rfoot -12.4336 -37.8818
rtoes 8.31326
lfemur -18.0294 -21.9684 -12.1435
ltibia 16.0946
lfoot -7.80791 14.8729
ltoes -30.2653
978
root 4.74689 17.8266 0.833988 367.354 99.8839 358.376
lowerback 2.00252 2.24153 3.61591
upperback 2.58271 3.06511 2.30856
thorax 1.59269 1.60137 0.332003
lowerneck -15.097 -3.95893 3.76616
upperneck 48.8746 -8.05193 10.4797
head 25.2912 0.405298 4.22888
rclavicle -2.18663e-014 2.54444e-014
rhumerus 22.6713 36.3234 -64.1115
rradius 99.155
rwrist -15.0214
rhand -13.495 36.1135
rfingers 7.12502
rthumb 12.616 6.51449
lclavicle -2.18663e-014 2.54444e-014
lhumerus -15.7418 -23.5972 73.1909
lradius 121.091
lwrist -1.74844
lhand -40.0969 37.9034
lfingers 7.12502
lthumb -13.0611 787.474
rfemur -7.69807 8.30751 21.5822
rtibia 13.2682
rfoot -12.3613 -37.8757
rtoes 8.13487
lfemur -17.9447 -21.6637 -12.2839
ltibia 16.1543
lfoot -7.80626 14.5314
ltoes -30.5315
979
root 4.75843 17.8257 0.833479 367.316 99.9817 358.397
lowerback 2.02794 2.2449 3.46276
upperback 2.48836 3.07083 2.31352
thorax 1.47277 1.59859 0.417725
lowerneck -14.9729 -4.0847 3.97239
upperneck 49.0788 -8.27932 10.523
head 25.5063 0.391889 4.21132
rclavicle -3.57812e-015 4.6118e-014
rhumerus 23.6989 36.1428 -63.6035
rradius 99.4003
rwrist -15.282
rhand -13.7547 35.9179
rfingers 7.12502
rthumb 12.3656 6.30363
lclavicle -3.57812e-015 4.6118e-014
lhumerus -15.8038 -23.2426 73.5785
lradius 121.138
lwrist -2.07838
lhand -40.5137 38.5164
lfingers 7.12502
lthumb -13.4629 788.061
rfemur -7.50036 8.28707 21.6127
rtibia 13.1147
rfoot -12.2828 -37.9443
rtoes 8.12514
lfemur -17.9075 -21.3009 -12.3925
ltibia 16.2854
lfoot -7.80949 14.0925
ltoes -30.9097
980
root 4.77152 17.8245 0.837701 367.77 100.139 358.901
lowerback 1.91794 2.22195 3.47255
upperback 2.48354 3.03383 2.27251
thorax 1.5315 1.58066 0.375328
lowerneck -14.9034 -4.15492 4.25719
upperneck 49.2086 -8.51145 10.6824
head 25.6844 0.399942 4.23692
rclavicle 1.86858e-014 -9.54166e-015
rhumerus 24.772 35.8515 -63.1136
rradius 99.6301
rwrist -15.4998
rhand -13.9539 35.9299
rfingers 7.12502
rthumb 12.1736 6.30416
lclavicle 1.86858e-014 -9.54166e-015
lhumerus -15.6703 -22.8809 73.6487
lradius 121.273
lwrist -2.36
lhand -40.6162 39.191
lfingers 7.12502
lthumb -13.5618 788.729
rfemur -7.28507 8.35758 21.7552
rtibia 12.9156
rfoot -12.3147 -38.1015
rtoes 8.56992
lfemur -17.9324 -20.9811 -12.3642
ltibia 16.4571
lfoot -7.85788 13.6534
ltoes -31.2208
